HIERARCHY
ROOT Hips
{
	OFFSET	0.00	0.00	0.00
	CHANNELS 6 Xposition Yposition Zposition Zrotation Xrotation Yrotation
	JOINT LeftUpLeg
	{
		OFFSET	 0.126116	-0.014019	-0.065224
		CHANNELS 3 Zrotation Xrotation Yrotation
		JOINT LeftLeg
		{
			OFFSET	 0.000000	 0.000000	 0.569914
			CHANNELS 3 Zrotation Xrotation Yrotation
			JOINT LeftFoot
			{
				OFFSET	 0.000000	 0.000000	 0.544423
				CHANNELS 3 Zrotation Xrotation Yrotation
				JOINT LeftToeBase
				{
					OFFSET	 0.000000	 0.000000	 0.207117
					CHANNELS 3 Zrotation Xrotation Yrotation
					End Site
					{
						OFFSET	 0.000000	 0.000000	 0.207117
					}
				}
			}
		}
	}
	JOINT RightUpLeg
	{
		OFFSET	-0.124023	-0.008373	-0.065224
		CHANNELS 3 Zrotation Xrotation Yrotation
		JOINT RightLeg
		{
			OFFSET	 0.000000	 0.000000	 0.570047
			CHANNELS 3 Zrotation Xrotation Yrotation
			JOINT RightFoot
			{
				OFFSET	 0.000000	 0.000000	 0.544354
				CHANNELS 3 Zrotation Xrotation Yrotation
				JOINT RightToeBase
				{
					OFFSET	 0.000000	 0.000000	 0.207540
					CHANNELS 3 Zrotation Xrotation Yrotation
					End Site
					{
						OFFSET	 0.000000	 0.000000	 0.207540
					}
				}
			}
		}
	}
	JOINT Spine
	{
		OFFSET	 0.000184	-0.007763	 0.117403
		CHANNELS 3 Zrotation Xrotation Yrotation
		JOINT Spine1
		{
			OFFSET	 0.000000	 0.000000	 0.137269
			CHANNELS 3 Zrotation Xrotation Yrotation
			JOINT Spine2
			{
				OFFSET	 0.000000	 0.000000	 0.156879
				CHANNELS 3 Zrotation Xrotation Yrotation
				JOINT LeftShoulder
				{
					OFFSET	 0.080501	-0.002496	 0.160144
					CHANNELS 3 Zrotation Xrotation Yrotation
					JOINT LeftArm
					{
						OFFSET	 0.000000	 0.000000	 0.164363
						CHANNELS 3 Zrotation Xrotation Yrotation
						JOINT LeftForeArm
						{
							OFFSET	 0.000000	 0.000000	 0.364576
							CHANNELS 3 Zrotation Xrotation Yrotation
							JOINT LeftHand
							{
								OFFSET	 0.000000	 0.000000	 0.360812
								CHANNELS 3 Zrotation Xrotation Yrotation
								JOINT LeftHandIndex1
								{
									OFFSET	 0.000000	 0.000000	 0.086006
									CHANNELS 3 Zrotation Xrotation Yrotation
									JOINT LeftHandIndex2
									{
										OFFSET	 0.000000	 0.000000	 0.047236
										CHANNELS 3 Zrotation Xrotation Yrotation
										JOINT LeftHandIndex3
										{
											OFFSET	-0.004284	-0.000551	 0.038166
											CHANNELS 3 Zrotation Xrotation Yrotation
											End Site
											{
												OFFSET	-0.004284	-0.000551	 0.038166
											}
										}
									}
								}
							}
						}
					}
				}
				JOINT Neck
				{
					OFFSET	 0.000000	 0.000000	 0.176489
					CHANNELS 3 Zrotation Xrotation Yrotation
					JOINT Head
					{
						OFFSET	 0.000000	-0.001747	 0.077940
						CHANNELS 3 Zrotation Xrotation Yrotation
						End Site
						{
							OFFSET	 0.000000	-0.001747	 0.077940
						}
					}
				}
				JOINT RightShoulder
				{
					OFFSET	-0.080363	 0.000306	 0.159706
					CHANNELS 3 Zrotation Xrotation Yrotation
					JOINT RightArm
					{
						OFFSET	 0.000000	 0.000000	 0.164196
						CHANNELS 3 Zrotation Xrotation Yrotation
						JOINT RightForeArm
						{
							OFFSET	 0.000000	 0.000000	 0.365611
							CHANNELS 3 Zrotation Xrotation Yrotation
							JOINT RightHand
							{
								OFFSET	 0.000000	 0.000000	 0.360648
								CHANNELS 3 Zrotation Xrotation Yrotation
								JOINT RightHandIndex1
								{
									OFFSET	 0.000000	 0.000000	 0.069977
									CHANNELS 3 Zrotation Xrotation Yrotation
									JOINT RightHandIndex2
									{
										OFFSET	 0.000000	 0.000000	 0.052305
										CHANNELS 3 Zrotation Xrotation Yrotation
										JOINT RightHandIndex3
										{
											OFFSET	 0.009002	-0.000782	 0.042196
											CHANNELS 3 Zrotation Xrotation Yrotation
											End Site
											{
												OFFSET	 0.009002	-0.000782	 0.042196
											}
										}
									}
								}
							}
						}
					}
				}
			}
		}
	}
}
MOTION
Frames:    8
Frame Time: 0.03333334
-0.000584	 0.016623	 1.315313	 0.002355	-0.000940	-0.184085	 11.506790	-1.886214	 177.078900	 1.485259	-10.948860	-0.637665	-6.509687	 61.810000	 0.744349	-2.385833	 28.452760	 0.000004	-11.563250	-2.793425	-176.825200	-1.456883	-12.200020	 0.699568	 6.412729	 62.350880	-0.759984	 2.384658	 28.388730	 0.000004	 37.730510	 2.770154	-0.104090	 2.122427	 3.582653	 0.840220	-6.387633	-4.382235	-1.384144	-91.776230	 78.527470	-180.000000	 45.228810	 32.222130	-54.723570	-27.112050	 3.911677	-10.711770	-15.379220	-41.376680	 5.702151	-2.635965	 4.993658	 6.788941	-5.165319	 0.784187	 3.516649	-5.225038	 0.466231	 0.424329	-0.000002	-3.783157	-0.089647	-6.212842	 4.695555	 0.254957	 89.782130	 78.203900	 180.000000	 1.713802	 12.762630	 106.423900	-15.363910	 3.600349	 10.854340	-18.314050	-38.718390	-18.817900	 6.112037	 4.509576	-0.364401	 4.968462	 1.518543	-9.347576	 5.168945	 0.703820	 2.021906
-0.000575	 0.016560	 1.316214	 0.002237	-0.000827	-0.181192	 11.702910	-1.901483	 177.064700	 1.485188	-10.955170	-0.638039	-6.495248	 61.659000	 0.736302	-2.385833	 28.452760	 0.000004	-11.760000	-2.802347	-176.816700	-1.456967	-12.193230	 0.699167	 6.394969	 62.193950	-0.748696	 2.384658	 28.388730	 0.000004	 38.504090	 2.770547	-0.101269	 2.090383	 3.578951	 0.827917	-6.290633	-4.383144	-1.363246	-91.776200	 78.527450	-180.000000	 45.227200	 32.231340	-54.728450	-25.728540	 3.392617	-10.018950	-13.113030	-42.545300	 7.544632	-2.635965	 4.993658	 6.788941	-5.165319	 0.784187	 3.516649	-5.225038	 0.466231	 0.424329	-0.000002	-3.783157	-0.089647	-6.118125	 4.710460	 0.251861	 89.782090	 78.203900	 180.000000	 1.667220	 12.805520	 106.380500	-16.793180	 3.077380	 10.152440	-20.794200	-39.497090	-20.735630	 6.112037	 4.509576	-0.364401	 4.968462	 1.518543	-9.347576	 5.168945	 0.703820	 2.021906
-0.000547	 0.016472	 1.317205	 0.002071	-0.000651	-0.176931	 11.937250	-1.920683	 177.047100	 1.485085	-10.964100	-0.638575	-6.478160	 61.479190	 0.726858	-2.385833	 28.452760	 0.000004	-11.995390	-2.811946	-176.807200	-1.457093	-12.183070	 0.698565	 6.373387	 62.005300	-0.734985	 2.384658	 28.388730	 0.000004	 38.994910	 2.770626	-0.097042	 2.043087	 3.575233	 0.809589	-6.147471	-4.386624	-1.332522	-91.776180	 78.527430	 180.000000	 45.240190	 32.254820	-54.761420	-24.023550	 2.806812	-9.146481	-10.677760	-43.053640	 9.407604	-2.635965	 4.993658	 6.788941	-5.165319	 0.784187	 3.516649	-5.225038	 0.466231	 0.424329	-0.000002	-3.783157	-0.089647	-5.978261	 4.731046	 0.247169	 89.782100	 78.203870	 180.000000	 1.705998	 12.899930	 106.326400	-18.559080	 2.487353	 9.269749	-23.231320	-39.621570	-22.537670	 6.112037	 4.509576	-0.364401	 4.968462	 1.518543	-9.347576	 5.168945	 0.703820	 2.021906
-0.000514	 0.016376	 1.318154	 0.002166	-0.000056	-0.171391	 12.172740	-1.939203	 177.027900	 1.485023	-10.969600	-0.638902	-6.460402	 61.296650	 0.717104	-2.385833	 28.452760	 0.000004	-12.231970	-2.820208	-176.798800	-1.457264	-12.169640	 0.697774	 6.351877	 61.814060	-0.721098	 2.384658	 28.388730	 0.000004	 39.025120	 2.769875	-0.092227	 1.985593	 3.572347	 0.787985	-5.974030	-4.392600	-1.295723	-91.776120	 78.527470	 179.999900	 45.261840	 32.296440	-54.815950	-22.252440	 2.262844	-8.223111	-8.645230	-42.647110	 10.748530	-2.635965	 4.993658	 6.788941	-5.165319	 0.784187	 3.516649	-5.225038	 0.466231	 0.424329	-0.000002	-3.783157	-0.089647	-5.808774	 4.754484	 0.241340	 89.782240	 78.203900	 179.999900	 1.732962	 12.993080	 106.255400	-20.390920	 1.938245	 8.335033	-25.020030	-38.923190	-23.670430	 6.112037	 4.509576	-0.364401	 4.968462	 1.518543	-9.347576	 5.168945	 0.703820	 2.021906
-0.000488	 0.016127	 1.318251	 0.002404	 0.000692	-0.165715	 12.200450	-1.942225	 177.020400	 1.484978	-10.973390	-0.639128	-6.460301	 61.278740	 0.718136	-2.385833	 28.452760	 0.000004	-12.261100	-2.803756	-176.799500	-1.457436	-12.155310	 0.696927	 6.354587	 61.795240	-0.725183	 2.384658	 28.388730	 0.000004	 38.672440	 2.768707	-0.087221	 1.926375	 3.570361	 0.765942	-5.795676	-4.399769	-1.258041	-91.776210	 78.527450	-180.000000	 45.305730	 32.358250	-54.913260	-20.636090	 1.821853	-7.364874	-7.245523	-41.575610	 11.408290	-2.635965	 4.993658	 6.788941	-5.165319	 0.784187	 3.516649	-5.225038	 0.466231	 0.424329	-0.000002	-3.783157	-0.089647	-5.634539	 4.777369	 0.235217	 89.782100	 78.203870	 180.000000	 1.511778	 13.024410	 106.184600	-22.066140	 1.493118	 7.467605	-26.021020	-37.664950	-24.047560	 6.112037	 4.509576	-0.364401	 4.968462	 1.518543	-9.347576	 5.168945	 0.703820	 2.021906
-0.000468	 0.015850	 1.318320	 0.002667	 0.001543	-0.159012	 12.185710	-1.942972	 177.014500	 1.484926	-10.978230	-0.639418	-6.479492	 61.283870	 0.723793	-2.385833	 28.452760	 0.000004	-12.275740	-2.782579	-176.801400	-1.457648	-12.138390	 0.695927	 6.344490	 61.799790	-0.728909	 2.384658	 28.388730	 0.000004	 37.921290	 2.767121	-0.081150	 1.855632	 3.568932	 0.739509	-5.582587	-4.409139	-1.213009	-91.776140	 78.527470	 180.000000	 45.359440	 32.432890	-55.032030	-18.885180	 1.402222	-6.418910	-6.181477	-39.783510	 11.542180	-2.635965	 4.993658	 6.788941	-5.165319	 0.784187	 3.516649	-5.225038	 0.466231	 0.424329	-0.000002	-3.783157	-0.089647	-5.426322	 4.803305	 0.227742	 89.782110	 78.203900	 180.000000	 0.839142	 12.927590	 106.040300	-23.881110	 1.071155	 6.512576	-26.530010	-35.754370	-23.829060	 6.112037	 4.509576	-0.364401	 4.968462	 1.518543	-9.347576	 5.168945	 0.703820	 2.021906
-0.000461	 0.015595	 1.318524	 0.002933	 0.002423	-0.151649	 12.185110	-1.944995	 177.007000	 1.484865	-10.983580	-0.639739	-6.482023	 61.289520	 0.726617	-2.385833	 28.452760	 0.000004	-12.276900	-2.759454	-176.804500	-1.457885	-12.119330	 0.694800	 6.350426	 61.802930	-0.735426	 2.384658	 28.388730	 0.000004	 36.796490	 2.765265	-0.074310	 1.776950	 3.568079	 0.710055	-5.345576	-4.420040	-1.162901	-91.776200	 78.527490	-180.000000	 45.416430	 32.515060	-55.158460	-17.101320	 1.039448	-5.443586	-5.505339	-37.394950	 11.131140	-2.635965	 4.993658	 6.788941	-5.165319	 0.784187	 3.516649	-5.225038	 0.466231	 0.424329	-0.000002	-3.783157	-0.089647	-5.194815	 4.830632	 0.219253	 89.782100	 78.203900	 180.000000	-0.399471	 12.701000	 105.828600	-25.729150	 0.704863	 5.527980	-26.631020	-33.290230	-23.021430	 6.112037	 4.509576	-0.364401	 4.968462	 1.518543	-9.347576	 5.168945	 0.703820	 2.021906
-0.000462	 0.015336	 1.318845	 0.003213	 0.003395	-0.142983	 12.184360	-1.948477	 176.998500	 1.484767	-10.991660	-0.640220	-6.485056	 61.296760	 0.729985	-2.385833	 28.452760	 0.000004	-12.278190	-2.733870	-176.808500	-1.458158	-12.097480	 0.693509	 6.356646	 61.805540	-0.742244	 2.384658	 28.388730	 0.000004	 35.187890	 2.762971	-0.066154	 1.683763	 3.567739	 0.674985	-5.064807	-4.433169	-1.103436	-91.776160	 78.527430	 180.000000	 45.486080	 32.612720	-55.310660	-15.149740	 0.715691	-4.364804	-5.128704	-34.253770	 10.166620	-2.635965	 4.993658	 6.788941	-5.165319	 0.784187	 3.516649	-5.225038	 0.466231	 0.424329	-0.000002	-3.783157	-0.089647	-4.920712	 4.861180	 0.208984	 89.782160	 78.203920	 179.999900	-2.229271	 12.373750	 105.536300	-27.747060	 0.378225	 4.437809	-26.494140	-30.063870	-21.585030	 6.112037	 4.509576	-0.364401	 4.968462	 1.518543	-9.347576	 5.168945	 0.703820	 2.021906
